<?xml version="1.0" encoding="UTF-8"?>
<svg enable-background="new 0 0 30 34" version="1.1" viewBox="0 0 30 34" xml:space="preserve" xmlns="http://www.w3.org/2000/svg">
<style type="text/css">
	.st0{fill:#72BF40;}
	.st1{fill:#FFFFFF;}
</style>
	<path class="st0" d="m30 22.5c0 1.1-0.7 2.5-1.7 3.1l-11.7 7.8c-0.9 0.6-2.4 0.6-3.3 0l-11.6-7.8c-1-0.6-1.7-2-1.7-3.1v-11c0-1.1 0.7-2.5 1.7-3.1l11.7-7.8c0.9-0.6 2.4-0.6 3.3 0l11.7 7.8c0.9 0.6 1.7 2 1.7 3.1v11z"/>
	<path class="st1" d="m10.8 17.2-0.1 0.3-0.2-0.3-1.2-1.5c-0.2-0.2-0.5-0.4-0.8-0.4s-0.6 0.1-0.8 0.4l-1.5 2-0.1 0.1h-2.6c-0.5 0-0.8 0.3-0.8 0.8s0.3 0.8 0.8 0.8h3.1c0.3 0 0.6-0.1 0.8-0.4l0.9-1.3 0.2-0.2 0.2 0.2 1.2 1.6 0.2 0.2c0.2 0.2 0.5 0.4 0.8 0.4h0.1c0.3 0 0.6-0.2 0.8-0.5l1.8-3.8 0.2-0.5 0.2 0.5 1.8 5.7c0.1 0.3 0.4 0.6 0.8 0.6h0.1c0.3 0 0.6-0.2 0.8-0.4l2.2-3.5 0.2-0.3 0.2 0.3 0.7 1c0.2 0.2 0.5 0.4 0.8 0.4h5.2c0.5 0 0.8-0.3 0.8-0.8s-0.3-0.8-0.8-0.8h-4.7l-0.1-0.1-0.9-1.3-0.4-0.6c-0.2-0.2-0.5-0.4-0.8-0.4-0.4 0-0.7 0.2-0.8 0.4l-2.1 3-0.2 0.4-0.1-0.4-1.9-6.2c-0.1-0.3-0.4-0.6-0.8-0.6h-0.1c-0.4 0-0.7 0.2-0.8 0.5l-2.3 4.7z"/>
	<path class="st0" d="m15 1.2c0.4 0 0.8 0.1 1.1 0.3l11.7 7.8c0.6 0.4 1.2 1.5 1.2 2.3v11c0 0.8-0.6 1.9-1.2 2.3l-11.7 7.8c-0.3 0.2-0.7 0.3-1.1 0.3s-0.8-0.1-1.1-0.3l-11.7-7.9c-0.6-0.4-1.2-1.5-1.2-2.3v-11c0-0.8 0.6-1.9 1.2-2.3l11.7-7.8c0.3-0.1 0.7-0.2 1.1-0.2m0-1c-0.6 0-1.2 0.2-1.7 0.5l-11.6 7.7c-1 0.6-1.7 2-1.7 3.1v11c0 1.1 0.7 2.5 1.7 3.1l11.7 7.8c0.5 0.3 1.1 0.5 1.7 0.5s1.2-0.2 1.7-0.5l11.7-7.8c0.9-0.6 1.7-2 1.7-3.1v-11c0-1.1-0.7-2.5-1.7-3.1l-11.8-7.8c-0.5-0.3-1.1-0.4-1.7-0.4z"/>
</svg>
