<svg viewBox="0 0 67 113" fill="none" xmlns="http://www.w3.org/2000/svg">
<path d="M19.5615 32.575H33.4064C36.7741 32.575 41.2158 32.575 43.5094 33.9678C46.0248 35.4645 47.9996 38.1877 47.9996 41.9365C47.9996 45.9971 45.8654 49.0461 42.3314 50.4874V50.5982C47.0364 51.5614 49.6003 55.0885 49.6003 59.7935C49.6003 65.4063 45.5882 70.7557 38.0006 70.7557H19.5615V32.575ZM24.6338 48.9837H34.7992C40.5714 48.9837 42.9273 46.8979 42.9273 42.8858C42.9273 37.5918 39.1855 36.8434 34.7992 36.8434H24.6338V48.9837ZM24.6338 66.4665H37.3631C41.7424 66.4665 44.528 63.7917 44.528 59.6272C44.528 54.6519 40.5159 53.266 36.2405 53.266H24.6338V66.4665Z" fill="#A1A1A3"/>
<path d="M62.5929 51.6722C62.5929 67.7068 49.5934 80.7062 33.5519 80.7062C17.5174 80.7062 4.51791 67.7068 4.51791 51.6722C4.51791 35.6377 17.5174 22.6382 33.5519 22.6382C49.5934 22.6451 62.5929 35.6377 62.5929 51.6722ZM33.5519 18.2103C15.0852 18.2103 0.11084 33.1847 0.11084 51.6514C0.11084 70.1182 15.0852 85.0925 33.5519 85.0925C52.0256 85.0925 67 70.1182 67 51.6514C67 33.1847 52.0256 18.2103 33.5519 18.2103Z" fill="#A1A1A3"/>
<path d="M66.9307 92.1536H0.180176V96.5399H66.9307V92.1536Z" fill="#A1A1A3"/>
<path d="M64.845 87.3239C64.9282 87.3239 65.0044 87.3169 65.0806 87.3169C65.1499 87.31 65.2192 87.2961 65.2747 87.2754C65.337 87.2476 65.3786 87.2061 65.4133 87.1576C65.4479 87.1021 65.4618 87.0328 65.4618 86.9428C65.4618 86.8665 65.4479 86.7972 65.4202 86.7557C65.3925 86.7072 65.3509 86.6725 65.3024 86.6517C65.2539 86.624 65.2054 86.6101 65.1361 86.5963C65.0737 86.5894 65.0183 86.5894 64.949 86.5894H64.4709V87.3308H64.845V87.3239ZM65.0044 86.2914C65.2816 86.2914 65.4825 86.3468 65.6211 86.4577C65.7528 86.5686 65.8221 86.7349 65.8221 86.9635C65.8221 87.1784 65.7597 87.3239 65.6488 87.4278C65.5311 87.5248 65.3855 87.5803 65.2054 87.601L65.8706 88.6266H65.4825L64.845 87.6218H64.4639V88.6266H64.0967V86.2983H65.0044V86.2914ZM63.3622 88.1207C63.4384 88.3286 63.5562 88.5157 63.7086 88.6682C63.8541 88.8206 64.0274 88.9384 64.2283 89.0285C64.4224 89.1116 64.6441 89.1532 64.8728 89.1532C65.1084 89.1532 65.3232 89.1116 65.5172 89.0285C65.7181 88.9384 65.8914 88.8206 66.0369 88.6682C66.1824 88.5157 66.3002 88.3356 66.3764 88.1207C66.4596 87.9129 66.5081 87.6911 66.5081 87.4486C66.5081 87.2061 66.4665 86.9843 66.3764 86.7765C66.2933 86.5686 66.1755 86.3884 66.0369 86.236C65.8845 86.0835 65.7112 85.9657 65.5172 85.8826C65.3232 85.7994 65.1014 85.7509 64.8728 85.7509C64.6441 85.7509 64.4224 85.7994 64.2283 85.8826C64.0274 85.9726 63.8472 86.0904 63.7086 86.236C63.5562 86.3884 63.4453 86.5686 63.3622 86.7765C63.279 86.9843 63.2374 87.1991 63.2374 87.4486C63.2374 87.6911 63.279 87.9198 63.3622 88.1207ZM63.0365 86.6586C63.1404 86.4161 63.2859 86.2152 63.4661 86.035C63.6463 85.8548 63.8611 85.7232 64.1036 85.6192C64.3461 85.5153 64.6094 85.4668 64.8728 85.4668C65.1499 85.4668 65.4063 85.5153 65.6558 85.6192C65.8914 85.7232 66.1062 85.8548 66.2794 86.035C66.4596 86.2152 66.612 86.423 66.709 86.6586C66.8199 86.9012 66.8684 87.1645 66.8684 87.4486C66.8684 87.7327 66.8199 87.996 66.709 88.2385C66.6051 88.488 66.4596 88.6959 66.2794 88.876C66.0993 89.0631 65.8914 89.1948 65.6558 89.2987C65.4063 89.3957 65.1499 89.4443 64.8728 89.4443C64.6025 89.4443 64.3461 89.3957 64.1036 89.2987C63.8611 89.1948 63.6463 89.0631 63.4661 88.876C63.2859 88.6959 63.1404 88.488 63.0365 88.2385C62.9256 87.996 62.884 87.7327 62.884 87.4486C62.8771 87.1714 62.9187 86.9012 63.0365 86.6586Z" fill="#A1A1A3"/>
<path d="M8.26673 3.50626C8.10735 3.24987 7.91333 3.02813 7.67773 2.84104C7.44213 2.64702 7.17189 2.5015 6.87393 2.39063C6.57596 2.28669 6.26414 2.23125 5.93846 2.23125C5.34254 2.23125 4.83669 2.34905 4.414 2.57772C3.99824 2.80639 3.6587 3.11821 3.40232 3.50626C3.14593 3.8943 2.95191 4.33778 2.83411 4.83669C2.71631 5.32868 2.65395 5.84145 2.65395 6.37501C2.65395 6.88086 2.70938 7.37284 2.83411 7.85097C2.95191 8.32909 3.139 8.75871 3.40232 9.14676C3.6587 9.52787 3.99824 9.83969 4.414 10.0684C4.82976 10.297 5.33561 10.4148 5.93846 10.4148C6.7492 10.4148 7.3867 10.1654 7.83711 9.67339C8.29445 9.17447 8.57162 8.52312 8.67556 7.71238H11.2464C11.1771 8.46768 11.0038 9.14676 10.7197 9.75654C10.4356 10.3663 10.0684 10.886 9.60409 11.3087C9.13983 11.7383 8.59934 12.064 7.98262 12.2927C7.36591 12.5144 6.6799 12.6322 5.93846 12.6322C5.01686 12.6322 4.18533 12.4729 3.44389 12.1472C2.70245 11.8284 2.08574 11.3849 1.57297 10.8167C1.06712 10.2555 0.679077 9.59024 0.408832 8.82801C0.138587 8.07271 0 7.25504 0 6.37501C0 5.4742 0.138587 4.63574 0.408832 3.85965C0.679077 3.0905 1.06712 2.41142 1.57297 1.84321C2.07881 1.26807 2.70245 0.817665 3.44389 0.491985C4.1784 0.166305 5.00993 0 5.93846 0C6.60368 0 7.23425 0.0970111 7.82325 0.284104C8.41224 0.478126 8.94581 0.7553 9.41007 1.12256C9.87434 1.48981 10.2624 1.94022 10.5673 2.48071C10.8722 3.0212 11.0662 3.64484 11.1424 4.33778H8.57162C8.53004 4.03982 8.4261 3.76264 8.26673 3.50626Z" fill="#A1A1A3"/>
<path d="M14.7041 10.2624C15.0644 10.6089 15.5841 10.789 16.2562 10.789C16.7413 10.789 17.157 10.6712 17.5104 10.4287C17.8569 10.1862 18.0717 9.9298 18.1549 9.65956H20.2683C19.9288 10.7059 19.4091 11.4612 18.7092 11.9116C18.0094 12.362 17.164 12.5907 16.1731 12.5907C15.4871 12.5907 14.8634 12.4798 14.316 12.2581C13.7617 12.0363 13.2974 11.7245 12.9094 11.3226C12.5282 10.9207 12.2303 10.4356 12.0224 9.86744C11.8145 9.30616 11.7106 8.68252 11.7106 8.01037C11.7106 7.35901 11.8145 6.74923 12.0293 6.18795C12.2441 5.62667 12.549 5.13468 12.944 4.72585C13.339 4.31702 13.8102 3.99134 14.3576 3.75574C14.905 3.52014 15.5079 3.40234 16.1731 3.40234C16.9145 3.40234 17.5659 3.54786 18.1202 3.83196C18.6746 4.123 19.125 4.50411 19.4784 4.98917C19.8318 5.47422 20.0882 6.02857 20.2475 6.64528C20.4069 7.262 20.4624 7.91336 20.4138 8.59243H14.1081C14.1497 9.34773 14.3437 9.91594 14.7041 10.2624ZM17.4204 5.66132C17.1293 5.34949 16.6928 5.19012 16.1107 5.19012C15.7296 5.19012 15.4109 5.25248 15.1545 5.38414C14.8981 5.5158 14.6971 5.67517 14.5447 5.86227C14.3922 6.05629 14.2883 6.25724 14.2259 6.47205C14.1636 6.68686 14.1289 6.87395 14.1151 7.04719H18.0163C17.9054 6.4374 17.7045 5.98007 17.4204 5.66132Z" fill="#A1A1A3"/>
<path d="M23.7815 3.61719V5.23866H23.8161C23.927 4.96842 24.0795 4.71896 24.2735 4.48336C24.4675 4.25469 24.6823 4.05374 24.9318 3.89436C25.1812 3.73499 25.4445 3.60333 25.7286 3.51325C26.0128 3.42317 26.3038 3.38159 26.6087 3.38159C26.7681 3.38159 26.9413 3.40931 27.1353 3.46474V5.696C27.0244 5.67521 26.8858 5.65442 26.7265 5.64056C26.5671 5.6267 26.4147 5.61285 26.2691 5.61285C25.8326 5.61285 25.4584 5.68907 25.1535 5.83459C24.8486 5.9801 24.6061 6.18105 24.419 6.43744C24.2319 6.69383 24.1002 6.98486 24.024 7.3244C23.9478 7.66394 23.9062 8.03119 23.9062 8.42617V12.369H21.5087V3.61719H23.7815Z" fill="#A1A1A3"/>
<path d="M33.5589 3.6171V5.22471H31.7988V9.55556C31.7988 9.9644 31.8681 10.2346 31.9998 10.3663C32.1314 10.498 32.4086 10.5673 32.8105 10.5673C32.9491 10.5673 33.0738 10.5603 33.1986 10.5534C33.3233 10.5395 33.4411 10.5257 33.552 10.5049V12.362C33.351 12.3966 33.1223 12.4174 32.8729 12.4312C32.6234 12.4451 32.3809 12.452 32.1453 12.452C31.7711 12.452 31.4177 12.4243 31.092 12.3758C30.7594 12.3273 30.4684 12.2303 30.212 12.0779C29.9556 11.9323 29.7616 11.7245 29.6092 11.4542C29.4636 11.184 29.3874 10.8306 29.3874 10.3871V5.22471H27.9323V3.6171H29.3874V0.997803H31.785V3.6171H33.5589Z" fill="#A1A1A3"/>
<path d="M34.9517 2.26598V0.28418H37.3492V2.26598H34.9517ZM37.3561 3.6172V12.3551H34.9586V3.6172H37.3561Z" fill="#A1A1A3"/>
<path d="M38.3055 5.22481V3.6172H39.7399V2.93812C39.7399 2.16204 39.9825 1.52454 40.4675 1.02562C40.9526 0.526707 41.6871 0.28418 42.6641 0.28418C42.8789 0.28418 43.0937 0.291109 43.3085 0.311897C43.5234 0.325756 43.7312 0.346544 43.9322 0.353473V2.14818C43.655 2.11353 43.364 2.09967 43.0591 2.09967C42.7334 2.09967 42.4978 2.1759 42.3592 2.32834C42.2206 2.48079 42.1513 2.73717 42.1513 3.0975V3.62413H43.8075V5.23174H42.1513V12.369H39.7469V5.22481H38.3055Z" fill="#A1A1A3"/>
<path d="M45.4288 2.26598V0.28418H47.8264V2.26598H45.4288ZM47.8264 3.6172V12.3551H45.4288V3.6172H47.8264Z" fill="#A1A1A3"/>
<path d="M51.6168 10.2624C51.9771 10.6089 52.4968 10.789 53.169 10.789C53.654 10.789 54.0698 10.6712 54.4232 10.4287C54.7697 10.1862 54.9845 9.9298 55.0676 9.65956H57.1811C56.8415 10.7059 56.3218 11.4612 55.6289 11.9116C54.929 12.362 54.0837 12.5907 53.0928 12.5907C52.4068 12.5907 51.7831 12.4798 51.2357 12.2581C50.6813 12.0363 50.2171 11.7245 49.829 11.3226C49.4479 10.9207 49.1499 10.4356 48.9421 9.86744C48.7342 9.30616 48.6302 8.68252 48.6302 8.01037C48.6302 7.35901 48.7411 6.74923 48.949 6.18795C49.1638 5.62667 49.4687 5.13468 49.8637 4.72585C50.2586 4.31702 50.7298 3.99134 51.2773 3.75574C51.8247 3.52014 52.4275 3.40234 53.0928 3.40234C53.8342 3.40234 54.4856 3.54786 55.0399 3.83196C55.5943 4.123 56.0447 4.50411 56.3981 4.98917C56.7515 5.47422 57.0078 6.02857 57.1672 6.64528C57.3266 7.262 57.382 7.91336 57.3405 8.59243H51.0347C51.0555 9.34773 51.2565 9.91594 51.6168 10.2624ZM54.3262 5.66132C54.0421 5.34949 53.5986 5.19012 53.0165 5.19012C52.6354 5.19012 52.3167 5.25248 52.0603 5.38414C51.8039 5.5158 51.6029 5.67517 51.4505 5.86227C51.2981 6.05629 51.1941 6.25724 51.1317 6.47205C51.0694 6.68686 51.0347 6.87395 51.0209 7.04719H54.9221C54.8182 6.4374 54.6172 5.98007 54.3262 5.66132Z" fill="#A1A1A3"/>
<path d="M64.6162 11.2395C64.3321 11.7107 63.9649 12.0572 63.5075 12.265C63.0502 12.4729 62.5374 12.5769 61.9623 12.5769C61.3109 12.5769 60.7358 12.4521 60.2369 12.1958C59.738 11.9394 59.3291 11.5998 59.0104 11.1633C58.6916 10.7267 58.4491 10.2278 58.2828 9.66654C58.1165 9.10526 58.0403 8.51626 58.0403 7.90648C58.0403 7.31748 58.1234 6.7562 58.2828 6.20878C58.4422 5.66137 58.6916 5.18324 59.0104 4.76055C59.3291 4.34479 59.738 4.00525 60.2161 3.75579C60.7012 3.4994 61.2624 3.37468 61.9069 3.37468C62.4266 3.37468 62.9186 3.48555 63.3828 3.70728C63.854 3.92902 64.2213 4.24778 64.4915 4.6774H64.5262V0.28418H66.9237V12.3551H64.6509V11.2395H64.6162ZM64.5123 6.92251C64.443 6.5899 64.3321 6.29887 64.1658 6.04248C63.9995 5.78609 63.7916 5.58514 63.5283 5.42577C63.2719 5.26639 62.9393 5.19017 62.5513 5.19017C62.1632 5.19017 61.8237 5.26639 61.5535 5.42577C61.2832 5.58514 61.0684 5.79302 60.9021 6.04941C60.7427 6.3058 60.6249 6.60376 60.5487 6.93637C60.4725 7.26898 60.4378 7.61545 60.4378 7.97577C60.4378 8.31531 60.4794 8.65485 60.5556 8.98746C60.6319 9.327 60.7635 9.62496 60.9368 9.89521C61.11 10.1585 61.3317 10.3733 61.595 10.5396C61.8584 10.7059 62.1771 10.7822 62.5513 10.7822C62.9463 10.7822 63.2719 10.7059 63.5422 10.5466C63.8055 10.3872 64.0203 10.1793 64.1797 9.90906C64.3391 9.64575 64.4499 9.34086 64.5192 9.00825C64.5885 8.66871 64.6232 8.32224 64.6232 7.96191C64.6232 7.60159 64.5816 7.25512 64.5123 6.92251Z" fill="#A1A1A3"/>
<path d="M6.03547 105.16C5.91768 104.315 5.10694 103.67 4.17841 103.67C2.5015 103.67 1.87093 105.098 1.87093 106.587C1.87093 108.001 2.5015 109.428 4.17841 109.428C5.32175 109.428 5.96618 108.645 6.10477 107.523H7.92026C7.72624 109.643 6.26414 111.001 4.17841 111.001C1.54525 111.001 0 109.033 0 106.587C0 104.065 1.54525 102.097 4.17841 102.097C6.04933 102.097 7.61537 103.192 7.84404 105.16H6.03547Z" fill="#A1A1A3"/>
<path d="M11.8214 104.481C13.7617 104.481 15.009 105.763 15.009 107.731C15.009 109.685 13.7617 110.967 11.8214 110.967C9.89508 110.967 8.64087 109.678 8.64087 107.731C8.64087 105.763 9.88815 104.481 11.8214 104.481ZM11.8214 109.692C12.9786 109.692 13.3182 108.701 13.3182 107.731C13.3182 106.74 12.9717 105.756 11.8214 105.756C10.6781 105.756 10.3316 106.747 10.3316 107.731C10.3316 108.708 10.6781 109.692 11.8214 109.692Z" fill="#A1A1A3"/>
<path d="M16.0554 104.633H17.663V105.777H17.6908C17.9956 105.001 18.8341 104.467 19.6587 104.467C19.7765 104.467 19.922 104.488 20.0259 104.522V106.095C19.8666 106.061 19.6171 106.04 19.4162 106.04C18.1758 106.04 17.7462 106.934 17.7462 108.015V110.787H16.0554V104.633Z" fill="#A1A1A3"/>
<path d="M20.6771 104.647H22.2847V105.43H22.3055C22.7074 104.779 23.3726 104.481 24.1349 104.481C26.0681 104.481 26.9343 106.04 26.9343 107.786C26.9343 109.429 26.0335 110.967 24.2319 110.967C23.4973 110.967 22.7906 110.648 22.3886 110.038H22.3609V112.969H20.6702V104.647H20.6771ZM25.2505 107.745C25.2505 106.768 24.8555 105.756 23.7745 105.756C22.6658 105.756 22.3124 106.747 22.3124 107.745C22.3124 108.743 22.6935 109.699 23.7884 109.699C24.8902 109.692 25.2505 108.743 25.2505 107.745Z" fill="#A1A1A3"/>
<path d="M30.6486 104.481C32.5888 104.481 33.8431 105.763 33.8431 107.731C33.8431 109.685 32.5888 110.967 30.6486 110.967C28.7223 110.967 27.475 109.678 27.475 107.731C27.475 105.763 28.7223 104.481 30.6486 104.481ZM30.6486 109.692C31.8058 109.692 32.1523 108.701 32.1523 107.731C32.1523 106.74 31.8058 105.756 30.6486 105.756C29.5053 105.756 29.1588 106.747 29.1588 107.731C29.1588 108.708 29.5053 109.692 30.6486 109.692Z" fill="#A1A1A3"/>
<path d="M34.8823 104.633H36.4899V105.777H36.5176C36.8225 105.001 37.661 104.467 38.4786 104.467C38.5964 104.467 38.742 104.488 38.8459 104.522V106.095C38.6935 106.061 38.444 106.04 38.2361 106.04C36.9958 106.04 36.5661 106.934 36.5661 108.015V110.787H34.8754V104.633H34.8823Z" fill="#A1A1A3"/>
<path d="M39.3449 106.539C39.4419 104.952 40.8555 104.481 42.2414 104.481C43.4679 104.481 44.9439 104.751 44.9439 106.227V109.429C44.9439 109.99 44.9993 110.544 45.1587 110.801H43.4402C43.3847 110.607 43.3293 110.406 43.3224 110.205C42.7888 110.766 42.0058 110.967 41.2505 110.967C40.0864 110.967 39.1578 110.385 39.1578 109.124C39.1578 107.731 40.2042 107.398 41.2505 107.253C42.2899 107.1 43.2531 107.135 43.2531 106.442C43.2531 105.714 42.7472 105.61 42.1583 105.61C41.5138 105.61 41.0981 105.874 41.0357 106.539H39.3449ZM43.2531 107.786C42.9621 108.036 42.3731 108.05 41.8464 108.147C41.3198 108.251 40.8486 108.431 40.8486 109.054C40.8486 109.685 41.3337 109.837 41.888 109.837C43.2046 109.837 43.26 108.791 43.26 108.424V107.786H43.2531Z" fill="#A1A1A3"/>
<path d="M48.36 104.647H49.6003V105.777H48.36V108.826C48.36 109.401 48.5055 109.539 49.0737 109.539C49.2539 109.539 49.4202 109.525 49.6003 109.491V110.814C49.3162 110.863 48.942 110.877 48.6094 110.877C47.577 110.877 46.6692 110.634 46.6692 109.415V105.784H45.6437V104.654H46.6692V102.811H48.36V104.647Z" fill="#A1A1A3"/>
<path d="M52.5592 103.698H50.8684V102.305H52.5592V103.698ZM50.8684 104.647H52.5592V110.8H50.8684V104.647Z" fill="#A1A1A3"/>
<path d="M56.8762 104.481C58.8164 104.481 60.0706 105.763 60.0706 107.731C60.0706 109.685 58.8164 110.967 56.8762 110.967C54.9498 110.967 53.7025 109.678 53.7025 107.731C53.6956 105.763 54.9498 104.481 56.8762 104.481ZM56.8762 109.692C58.0334 109.692 58.3799 108.701 58.3799 107.731C58.3799 106.74 58.0334 105.756 56.8762 105.756C55.7328 105.756 55.3864 106.747 55.3864 107.731C55.3864 108.708 55.7328 109.692 56.8762 109.692Z" fill="#A1A1A3"/>
<path d="M61.1584 104.647H62.7661V105.507H62.8007C63.2303 104.814 63.9648 104.481 64.6855 104.481C66.4802 104.481 66.9375 105.493 66.9375 107.017V110.801H65.2468V107.322C65.2468 106.31 64.9488 105.811 64.1658 105.811C63.2442 105.811 62.8561 106.324 62.8561 107.578V110.807H61.1654V104.647H61.1584Z" fill="#A1A1A3"/>
</svg>
