<svg viewBox="357 198 300 565" xmlns="http://www.w3.org/2000/svg"><path d="m749.6 571.5c0 18.2-13.3 41.5-29.9 51.4l-194 129.4c-14.9 10-39.8 10-54.7 0l-192.4-129.4c-16.6-10-28.2-33.2-28.2-51.4v-182.5c0-18.2 11.6-41.5 28.2-51.4l194.1-129.4c14.9-10 39.8-10 54.7 0l194.1 129.4c14.9 10 28.2 33.2 28.2 51.4v182.5z" fill="#99c267"/><path d="m704.5 610.7c15.4-9.1 27.6-30.3 27.6-47v-166.5c0-16.7-12.3-37.9-26.1-47l-179.6-118.1c-7.1-4.6-16.5-6.9-26-6.8v510.4c8.9-.1 17.7-2.4 24.4-6.8z" fill="#80b341"/><g fill="#fff"><path d="m524.4 541.1h-23.9v-108.9h-.8l-31 19.8v-22l32.8-21.1h22.8v132.2z"/><path d="m559.3 408.9h50.6c28.7 0 42.8 14.6 42.8 34.3 0 16.1-10.2 25.1-23.1 28.1v1.3c14.1.7 28.3 12.5 28.3 32.5 0 20.6-14.8 36-45.1 36h-53.5zm47.6 56.2c12.5 0 21.9-7.2 21.9-18.8 0-10.2-7.3-17.6-21.4-17.6h-24.2v36.5h23.7zm2.1 56c17.4 0 24.6-7.4 24.6-17.9 0-11.8-9.2-20.8-23.9-20.8h-26.4v38.7z"/><path d="m428.3 413.2c-18.4-21.6-78.1 20.3-77.8 74.3 0 .6-.2 1.1-.5 1.5s-.8.8-1.3.9-1.1.1-1.6-.1-.9-.6-1.2-1c-6.2-13.4-7-28.6-2.2-42.5.2-.5.2-1.1.1-1.7-.2-.5-.6-1-1.1-1.3s-1.1-.4-1.6-.3c-.6.1-1.1.4-1.4.9-9.9 10.7-15.3 24.7-15.3 39.2 0 38 31.5 58.5 57.9 57.9 81.3-1.8 62.5-108.5 46-127.8z"/></g></svg>
