<svg xmlns="http://www.w3.org/2000/svg" viewBox="0 0 30 34" enable-background="new 0 0 30 34"><path d="M30 22.499c0 1.1-.749 2.5-1.665 3.111l-11.67 7.78c-.916.61-2.414.61-3.33 0l-11.67-7.78c-.916-.611-1.665-2.01-1.665-3.111v-10.998c0-1.1.749-2.5 1.665-3.111l11.67-7.78c.916-.61 2.414-.61 3.33 0l11.67 7.78c.916.611 1.665 2.01 1.665 3.111v10.998z" fill="#F38844"/><g><path d="M15.226 13.438c.659-.083 1.269-.481 1.567-1.044.321-.606.268-1.334-.151-2.051-.851-1.46-.432-2.744-.414-2.797.035-.102.008-.217-.068-.29-.077-.072-.187-.089-.28-.041-.119.061-2.88 1.521-2.88 4.019 0 1.129.752 2.062 1.72 2.202l.506.002z" fill="#fff"/><path d="M15 18.5c-.276 0-.5-.224-.5-.5v-6c0-.276.224-.5.5-.5s.5.224.5.5v6c0 .276-.224.5-.5.5z" fill="#F38844"/><path d="M11.393 16.485c.033-1.006.496-1.485 1.502-1.485h4.556c1.139 0 1.337.793 1.337 1.189s-.198 1.189-1.337 1.189h-3.532l-.099 1.849c.346-.083.825-.116 1.172-.116 2.344 0 4.226 1.255 4.226 3.714 0 2.839-2.212 4.176-4.506 4.176-1.419 0-2.707-.528-3.466-1.32-.264-.281-.462-.677-.462-1.056 0-.71.561-1.238 1.287-1.238.33 0 .611.083 1.122.627.363.38.875.644 1.485.644.941 0 1.75-.578 1.75-1.7 0-1.386-1.255-1.783-2.393-1.783-.495 0-.859.05-1.139.099-.248.05-.429.083-.627.083-.297 0-1.073-.116-1.023-1.205l.147-3.667z" fill="#fff"/></g></svg>